<svg xmlns="http://www.w3.org/2000/svg" width="955" height="955" viewBox="0 0 955 955"><rect width="100%" height="100%" fill="#DDDDDD"/><path fill="#999999" d="M210.67 459.15q0 7.68 3.97 11.71 3.97 4.04 11.27 4.04 3.81 0 6.8-1.21 2.98-1.21 5.02-3.3 2.03-2.1 3.07-4.96 1.05-2.85 1.05-6.16 0-3.74-1.14-6.69-1.14-2.96-3.24-4.99-2.09-2.03-4.98-3.11-2.89-1.08-6.32-1.08-3.56 0-6.42 1.17-2.85 1.18-4.88 3.28-2.04 2.09-3.12 4.98-1.08 2.89-1.08 6.32Zm-7.68 64.26 28.51-35.62q1.08-1.34 2.03-2.61.96-1.27 1.85-2.54-3.18 2.04-6.99 3.08-3.81 1.05-8 1.05-4.76 0-9.33-1.65-4.58-1.65-8.13-4.99-3.56-3.33-5.75-8.25t-2.19-11.53q0-6.16 2.29-11.55 2.28-5.4 6.41-9.46 4.13-4.07 9.91-6.42 5.77-2.35 12.76-2.35 7.05 0 12.67 2.23 5.62 2.22 9.59 6.22 3.96 4 6.09 9.59 2.13 5.58 2.13 12.25 0 4.26-.73 8.07-.73 3.81-2.07 7.33-1.33 3.53-3.23 6.89-1.91 3.37-4.26 6.67l-21.02 29.97q-1.08 1.52-3.24 2.57-2.15 1.05-4.88 1.05h-14.42Zm89.41-77.6-3.24 19.12q3.05-.64 5.84-.92 2.8-.29 5.4-.29 7.24 0 12.76 2.16 5.53 2.16 9.27 5.97 3.75 3.81 5.66 8.92 1.9 5.11 1.9 11.02 0 7.3-2.57 13.33t-7.14 10.32q-4.58 4.29-10.83 6.64-6.26 2.35-13.62 2.35-4.32 0-8.19-.89-3.88-.89-7.27-2.38-3.4-1.5-6.29-3.43-2.89-1.94-5.18-4.1l4.83-6.67q1.52-2.16 4-2.16 1.59 0 3.24 1.02 1.65 1.02 3.78 2.22 2.12 1.21 5.01 2.23 2.89 1.01 6.96 1.01 4.31 0 7.62-1.4 3.3-1.39 5.49-3.9 2.19-2.51 3.3-5.97 1.11-3.46 1.11-7.52 0-7.5-4.35-11.72-4.35-4.22-12.86-4.22-6.54 0-13.39 2.41l-9.78-2.79 7.62-44.58h45.34v6.67q0 3.36-2.1 5.46-2.1 2.09-7.11 2.09H292.4Zm73.66 0-3.24 19.12q3.05-.64 5.84-.92 2.8-.29 5.4-.29 7.24 0 12.76 2.16 5.53 2.16 9.27 5.97 3.75 3.81 5.66 8.92 1.9 5.11 1.9 11.02 0 7.3-2.57 13.33t-7.14 10.32q-4.58 4.29-10.83 6.64-6.26 2.35-13.62 2.35-4.32 0-8.19-.89-3.88-.89-7.27-2.38-3.4-1.5-6.29-3.43-2.89-1.94-5.18-4.1l4.83-6.67q1.52-2.16 4-2.16 1.59 0 3.24 1.02 1.65 1.02 3.78 2.22 2.12 1.21 5.01 2.23 2.89 1.01 6.96 1.01 4.31 0 7.62-1.4 3.3-1.39 5.49-3.9 2.19-2.51 3.3-5.97 1.11-3.46 1.11-7.52 0-7.5-4.35-11.72-4.35-4.22-12.86-4.22-6.54 0-13.39 2.41l-9.78-2.79 7.62-44.58h45.34v6.67q0 3.36-2.1 5.46-2.1 2.09-7.11 2.09h-25.21Zm142.3 56.58-8.32 8.19-21.52-21.52-21.72 21.65-8.32-8.19 21.72-21.78-20.7-20.7 8.25-8.26 20.7 20.7 20.58-20.57 8.38 8.25-20.64 20.64 21.59 21.59Zm58.68-43.24q0 7.68 3.96 11.71 3.97 4.04 11.28 4.04 3.81 0 6.79-1.21 2.99-1.21 5.02-3.3 2.03-2.1 3.08-4.96 1.04-2.85 1.04-6.16 0-3.74-1.14-6.69-1.14-2.96-3.24-4.99-2.09-2.03-4.98-3.11-2.89-1.08-6.32-1.08-3.56 0-6.41 1.17-2.86 1.18-4.89 3.28-2.03 2.09-3.11 4.98-1.08 2.89-1.08 6.32Zm-7.69 64.26 28.51-35.62q1.08-1.34 2.04-2.61.95-1.27 1.84-2.54-3.18 2.04-6.99 3.08-3.81 1.05-8 1.05-4.76 0-9.33-1.65t-8.13-4.99q-3.56-3.33-5.75-8.25t-2.19-11.53q0-6.16 2.29-11.55 2.28-5.4 6.41-9.46 4.13-4.07 9.91-6.42 5.78-2.35 12.76-2.35 7.05 0 12.67 2.23 5.62 2.22 9.59 6.22 3.97 4 6.09 9.59 2.13 5.58 2.13 12.25 0 4.26-.73 8.07-.73 3.81-2.06 7.33-1.34 3.53-3.24 6.89-1.91 3.37-4.26 6.67l-21.01 29.97q-1.08 1.52-3.24 2.57-2.16 1.05-4.89 1.05h-14.42Zm89.41-77.6-3.24 19.12q3.05-.64 5.84-.92 2.8-.29 5.4-.29 7.24 0 12.77 2.16 5.52 2.16 9.27 5.97 3.74 3.81 5.65 8.92 1.9 5.11 1.9 11.02 0 7.3-2.57 13.33t-7.14 10.32q-4.57 4.29-10.83 6.64-6.25 2.35-13.62 2.35-4.32 0-8.19-.89-3.88-.89-7.27-2.38-3.4-1.5-6.29-3.43-2.89-1.94-5.17-4.1l4.82-6.67q1.53-2.16 4-2.16 1.59 0 3.24 1.02 1.65 1.02 3.78 2.22 2.13 1.21 5.02 2.23 2.88 1.01 6.95 1.01 4.32 0 7.62-1.4 3.3-1.39 5.49-3.9 2.19-2.51 3.3-5.97 1.11-3.46 1.11-7.52 0-7.5-4.35-11.72-4.34-4.22-12.85-4.22-6.54 0-13.4 2.41l-9.78-2.79 7.62-44.58h45.34v6.67q0 3.36-2.1 5.46-2.09 2.09-7.11 2.09h-25.21Zm73.66 0-3.24 19.12q3.05-.64 5.84-.92 2.8-.29 5.4-.29 7.24 0 12.77 2.16 5.52 2.16 9.27 5.97 3.74 3.81 5.65 8.92 1.9 5.11 1.9 11.02 0 7.3-2.57 13.33t-7.14 10.32q-4.57 4.29-10.83 6.64-6.25 2.35-13.62 2.35-4.32 0-8.19-.89-3.88-.89-7.27-2.38-3.4-1.5-6.29-3.43-2.89-1.94-5.17-4.1l4.82-6.67q1.53-2.16 4-2.16 1.59 0 3.24 1.02 1.65 1.02 3.78 2.22 2.13 1.21 5.02 2.23 2.88 1.01 6.95 1.01 4.32 0 7.62-1.4 3.3-1.39 5.49-3.9 2.19-2.51 3.3-5.97 1.11-3.46 1.11-7.52 0-7.5-4.35-11.72-4.34-4.22-12.85-4.22-6.54 0-13.4 2.41l-9.78-2.79 7.62-44.58h45.34v6.67q0 3.36-2.1 5.46-2.09 2.09-7.11 2.09h-25.21Z"/></svg>